<svg id="the-spheres" class="hidden-svg" data-name="Layer 1" xmlns="http://www.w3.org/2000/svg" viewBox="0 0 339.84 339.84">
  <defs>
    <style>
      .sphere-1 {
        fill: #276d7b;
      }

      .sphere-2 {
        fill: #fff;
      }

      .sphere-3 {
        fill: #f1613d;
      }

      .sphere-4 {
        fill: #b673b0;
      }

      .sphere-5 {
        fill: #fedf00;
      }

      .sphere-6 {
        fill: #333;
      }

      .sphere-7 {
        fill: #044953;
      }

      .sphere-8 {
        fill: #e6e6e6;
      }

      .sphere-9 {
        fill: #86aa49;
      }
    </style>
  </defs>
  <title>gem-spheres</title>
  <g>
    <g id="media" class="sphere-without-opportunities">
      <path class="sphere-1" d="M211.59,169.875l-.0006.0225-.0006.0225H299.54a129.2407,129.2407,0,0,0-37.96-91.66l-31.0611,31.0612-31.0612,31.0612A41.7919,41.7919,0,0,1,211.59,169.875Z"/>
      <g>
        <path class="sphere-2" d="M243.94,142.7168l-1.5166-3.7871-.6221,3.9072-.3418.1362-3.1289-2.3867,1.5,3.7671-.7129.2842-2.0723-5.2017.6094-.2426,3.626,2.792.6846-4.5088.6083-.2427,2.08,5.1987Z"/>
        <path class="sphere-2" d="M248.9566,138.7163l-3.1954,1.2725a1.4358,1.4358,0,0,0,1.8858.5835,1.5856,1.5856,0,0,0,.9473-.9283l.5771.3038a2.3108,2.3108,0,0,1-4.2187.0874,2.0761,2.0761,0,0,1,1.1777-2.7935,2.0437,2.0437,0,0,1,2.7549,1.2529C248.9087,138.5542,248.937,138.6465,248.9566,138.7163Zm-3.4.76,2.5264-1.0064a1.3683,1.3683,0,0,0-2.5264,1.0064Z"/>
        <path class="sphere-2" d="M252.1763,133.0532l2.1963,5.5137-.6836.2725-.249-.6246a1.79,1.79,0,0,1-1.1377,1.2286,2.1638,2.1638,0,0,1-1.6016-4.02,1.8047,1.8047,0,0,1,1.627.084l-.8653-2.17Zm.706,3.8257a1.43,1.43,0,1,0-.7695,1.9165A1.3954,1.3954,0,0,0,252.8823,136.8789Z"/>
        <path class="sphere-2" d="M253.563,132.9165a.5062.5062,0,0,1,.2969-.6606.4977.4977,0,0,1,.664.2607.5207.5207,0,0,1-.9609.4Zm.6123,1.168.7129-.2842,1.5693,3.9385-.7138.2841Z"/>
        <path class="sphere-2" d="M259.9878,133.5776l.9473,2.378-.6758.2695-.207-.52a1.5733,1.5733,0,0,1-1.0684,1.08c-.8916.3549-1.6455.1045-1.918-.5791-.2519-.6319-.0507-1.3145,1.1241-1.7823l1.1289-.45-.0557-.1411a.9714.9714,0,0,0-1.4346-.5307,2.1452,2.1452,0,0,0-1.0791.9209l-.5107-.4165a2.8265,2.8265,0,0,1,1.4258-1.1538A1.5784,1.5784,0,0,1,259.9878,133.5776Zm-.2451,1.4585-.2188-.55-1.1005.4385c-.7061.2813-.7969.6358-.6631.97.1562.3941.581.5088,1.124.293A1.2312,1.2312,0,0,0,259.7427,135.0361Z"/>
      </g>
    </g>
    <g id="church-planting" class="sphere-without-opportunities">
      <path class="sphere-3" d="M211.5885,169.92a41.7923,41.7923,0,0,1-12.1748,29.4936l31.0832,31.0832L261.58,261.58a129.2411,129.2411,0,0,0,37.96-91.66H211.5885Z"/>
      <g>
        <path class="sphere-2" d="M217.5347,190.03a2.832,2.832,0,0,1,3.8164-1.5615,2.7678,2.7678,0,0,1,1.6543,1.5966l-.669.2764a2.0752,2.0752,0,0,0-1.2187-1.2,2.1523,2.1523,0,1,0-1.5928,3.998,2.0842,2.0842,0,0,0,1.7129-.041l.2969.66a2.7812,2.7812,0,0,1-2.3106.0273A2.8309,2.8309,0,0,1,217.5347,190.03Z"/>
        <path class="sphere-2" d="M226.8277,194.12l-.9034,2.2666-.7138-.2842.8711-2.1855a1.0679,1.0679,0,0,0-.6045-1.5752,1.26,1.26,0,0,0-1.77.81l-.8076,2.0293-.7138-.2841,2.1972-5.5137.7129.2842-.85,2.1328a1.8369,1.8369,0,0,1,1.627-.041A1.6432,1.6432,0,0,1,226.8277,194.12Z"/>
        <path class="sphere-2" d="M232.5093,194.4443l-1.5693,3.9385-.6758-.2695.2373-.5938a1.725,1.725,0,0,1-1.5928.1055,1.6658,1.6658,0,0,1-1.0107-2.3906l.9033-2.2666.7129.2842-.87,2.1845a1.0733,1.0733,0,0,0,.6015,1.5821,1.2467,1.2467,0,0,0,1.7393-.8223l.8115-2.0361Z"/>
        <path class="sphere-2" d="M236.0054,195.7949l-.2754.69a1.4793,1.4793,0,0,0-.16-.0723,1.2655,1.2655,0,0,0-1.7714.8359l-.7813,1.9619-.7139-.2841,1.5694-3.9385.6836.2724-.2637.6612A1.6181,1.6181,0,0,1,236.0054,195.7949Z"/>
        <path class="sphere-2" d="M235.689,197.9922a2.1185,2.1185,0,0,1,2.88-1.1777,1.89,1.89,0,0,1,1.27,1.4794l-.6817.1329a1.3218,1.3218,0,0,0-.8447-.9913,1.4922,1.4922,0,0,0-1.1045,2.7715,1.322,1.322,0,0,0,1.2949-.1377l.4063.5577a1.8962,1.8962,0,0,1-1.9424.208A2.1247,2.1247,0,0,1,235.689,197.9922Z"/>
        <path class="sphere-2" d="M244.0913,200.9951l-.9023,2.2666-.7139-.2842.8711-2.1855a1.0679,1.0679,0,0,0-.6045-1.5752,1.26,1.26,0,0,0-1.77.81l-.8076,2.0293-.7139-.2841,2.1973-5.5137.7129.2842-.85,2.1328a1.837,1.837,0,0,1,1.627-.041A1.6422,1.6422,0,0,1,244.0913,200.9951Z"/>
        <path class="sphere-2" d="M252.1675,202.9111c-.45,1.13-1.54,1.4873-2.8926.9493l-1.2851-.5127-.628,1.5752-.7431-.2959,2.0722-5.2012,2.0284.8076C252.0718,200.7725,252.6167,201.7812,252.1675,202.9111Zm-.7432-.2959c.2959-.7431-.0332-1.3652-.9843-1.7441l-1.2637-.5029-.93,2.333,1.2637.5039C250.4614,203.584,251.1275,203.3584,251.4243,202.6152Z"/>
        <path class="sphere-2" d="M254.0933,201.2148l.7129.2842-2.1963,5.5137-.7139-.2842Z"/>
        <path class="sphere-2" d="M258.0405,206.4209l-.9472,2.3779-.6758-.2695.207-.52a1.57,1.57,0,0,1-1.5175.05c-.8916-.3545-1.2676-1.0557-.9952-1.7393.252-.6318.8682-.9892,2.042-.5214l1.1289.45.0567-.1406a.9712.9712,0,0,0-.6768-1.372,2.1426,2.1426,0,0,0-1.417-.0733l-.084-.6543a2.8234,2.8234,0,0,1,1.8291.1436A1.5783,1.5783,0,0,1,258.0405,206.4209Zm-1.1806.89.2187-.55-1.1-.4375c-.706-.2812-1.0156-.0869-1.1494.2481-.1562.3935.0723.7685.6152.9853A1.2288,1.2288,0,0,0,256.86,207.3105Z"/>
        <path class="sphere-2" d="M263.0542,208.5459l-.9033,2.2666-.7139-.2842.8711-2.1855a1.0679,1.0679,0,0,0-.6045-1.5752,1.26,1.26,0,0,0-1.7695.8105l-.8076,2.0293-.7139-.2842,1.5694-3.9384.6835.2724-.2363.5948a1.8148,1.8148,0,0,1,1.6709-.0665A1.6432,1.6432,0,0,1,263.0542,208.5459Z"/>
        <path class="sphere-2" d="M265.7788,211.99a1.4414,1.4414,0,0,1-.9717-.0683,1.21,1.21,0,0,1-.7568-1.7305l.8613-2.1631-.6689-.2656.2344-.5869.6689.2656.3428-.8613.7139.2842-.3438.8613,1.13.45-.2344.5869-1.1289-.45-.85,2.1328a.6244.6244,0,0,0,.3525.9072.9691.9691,0,0,0,.6319.0362Z"/>
        <path class="sphere-2" d="M268.1118,208.6221l.7139.2841-1.5693,3.9385-.7139-.2842Zm.3594-1.27a.5055.5055,0,0,1,.669-.2754.4976.4976,0,0,1,.3027.6456.52.52,0,0,1-.9717-.37Z"/>
        <path class="sphere-2" d="M273.2573,212.6094l-.9033,2.2666-.7138-.2842.871-2.1856a1.0678,1.0678,0,0,0-.6044-1.5751,1.26,1.26,0,0,0-1.77.8105l-.8076,2.0293-.7139-.2842,1.5694-3.9385.6836.2725-.2364.5938a1.8179,1.8179,0,0,1,1.6709-.0655A1.6432,1.6432,0,0,1,273.2573,212.6094Z"/>
        <path class="sphere-2" d="M279.0523,212.98l-1.3555,3.4033a1.926,1.926,0,0,1-2.8486,1.207,3.1388,3.1388,0,0,1-1.6465-1.3359l.56-.4141a2.5949,2.5949,0,0,0,1.3115,1.1172,1.2578,1.2578,0,0,0,1.88-.7841l.1241-.3125a1.9382,1.9382,0,0,1-1.6622.0439,2.0538,2.0538,0,1,1,1.5186-3.8115,1.9343,1.9343,0,0,1,1.1992,1.2265l.2432-.6093Zm-1.4414,1.5869a1.4623,1.4623,0,1,0-1.8643.7461A1.3543,1.3543,0,0,0,277.6109,214.5664Z"/>
      </g>
    </g>
    <g id="administration" class="sphere-without-opportunities">
      <path class="sphere-4" d="M199.4137,199.4137l31.0832,31.0831L261.58,261.58l-31.0831-31.0832-31.0832-31.0831A41.794,41.794,0,0,1,169.92,211.7981V299.54a129.2418,129.2418,0,0,0,91.66-37.96l-31.0831-31.0832-31.0832-31.0832Z"/>
      <g>
        <path class="sphere-2" d="M191.6011,226.3975,190.5,223.6338l-1.5283-.0547-.3047-.7656,6.14.2842.2939.7353-4.2607,4.4356-.3106-.78Zm.4912-.4971,2.1016-2.1367-2.9961-.1075Z"/>
        <path class="sphere-2" d="M198.0923,230.4307l-5.5146,2.1963-.2715-.6836.624-.2491a1.7882,1.7882,0,0,1-1.2285-1.1377,2.164,2.164,0,0,1,4.02-1.6015,1.807,1.807,0,0,1-.084,1.6269l2.17-.8652Zm-3.8262.706a1.43,1.43,0,1,0-1.917-.7695A1.3953,1.3953,0,0,0,194.2661,231.1367Z"/>
        <path class="sphere-2" d="M197.9878,239.6123l-2.2666.9033-.2842-.7138,2.1856-.87c.7724-.3076,1.0029-.83.7461-1.4765a1.2317,1.2317,0,0,0-1.7793-.6612l-2.0283.8086-.2842-.7138,2.1845-.87c.7735-.3077,1.004-.83.7461-1.4766a1.2308,1.2308,0,0,0-1.7783-.6611l-2.0283.8086-.2842-.7139,3.9385-1.5684.2725.6836-.587.2334a1.7193,1.7193,0,0,1,1.1651,1.1113,1.5679,1.5679,0,0,1-.1836,1.6583,1.91,1.91,0,0,1,1.333,1.2255A1.6257,1.6257,0,0,1,197.9878,239.6123Z"/>
        <path class="sphere-2" d="M200.1792,240.25l.2842.7129-3.9385,1.5693-.2842-.7138Zm1.168-.6123a.5069.5069,0,0,1,.6611.2969.4986.4986,0,0,1-.2607.664.5207.5207,0,0,1-.4-.9609Z"/>
        <path class="sphere-2" d="M200.8267,246.7354l-2.2656.9033-.2842-.7139,2.1845-.87a1.0676,1.0676,0,0,0,.7286-1.5215,1.26,1.26,0,0,0-1.8057-.7275l-2.0283.8086-.2842-.7139,3.9385-1.5684.2724.6836-.5947.2364a1.8214,1.8214,0,0,1,1.1973,1.1679A1.6423,1.6423,0,0,1,200.8267,246.7354Z"/>
        <path class="sphere-2" d="M203.0308,247.4033l.2842.7129-3.9385,1.5693-.2842-.7138Zm1.1679-.6123a.5062.5062,0,0,1,.6612.2969.499.499,0,0,1-.2608.6641.5208.5208,0,0,1-.4-.961Z"/>
        <path class="sphere-2" d="M200.1372,250.3828l.6826.0723A2.7278,2.7278,0,0,0,200.9624,252c.2637.6611.5733.8564.9082.7227.8838-.3516-.873-2.5362.6944-3.1612.706-.2812,1.4336.1612,1.8359,1.1719a3.0837,3.0837,0,0,1,.2148,1.5762l-.6865-.08a2.204,2.204,0,0,0-.1406-1.2607c-.2481-.6241-.6006-.837-.9121-.7129-.9287.37.8232,2.5644-.707,3.1748-.7139.2841-1.4278-.19-1.8448-1.2373A3.0561,3.0561,0,0,1,200.1372,250.3828Z"/>
        <path class="sphere-2" d="M202.5142,256.8867a1.4475,1.4475,0,0,1-.6182-.7519,1.21,1.21,0,0,1,.7363-1.74l2.1622-.8613-.2666-.6689.5869-.2334.2666.6679.8623-.3427.2842.7128-.8624.3438.45,1.13-.5869.2334-.45-1.13-2.1328.85a.6246.6246,0,0,0-.415.8809.9656.9656,0,0,0,.4072.4834Z"/>
        <path class="sphere-2" d="M207.45,258.3828l-.6914.2754a1.4237,1.4237,0,0,0-.0576-.166,1.2644,1.2644,0,0,0-1.8242-.711l-1.9619.7813-.2842-.7139,3.9385-1.5683.2724.6836-.6621.2636A1.62,1.62,0,0,1,207.45,258.3828Z"/>
        <path class="sphere-2" d="M207.4439,263.0117l-2.378.9473-.2695-.6758.52-.207a1.5749,1.5749,0,0,1-1.08-1.0684c-.3554-.8916-.1045-1.6455.5791-1.918.6319-.2519,1.3145-.0507,1.7823,1.1241l.45,1.1289.1406-.0557a.9713.9713,0,0,0,.5312-1.4346,2.1429,2.1429,0,0,0-.9209-1.0791l.417-.5107a2.8283,2.8283,0,0,1,1.1533,1.4258A1.5789,1.5789,0,0,1,207.4439,263.0117Zm-1.458-.2451.55-.2187-.4385-1.1006c-.2813-.7061-.6358-.7969-.9707-.6631-.3936.1562-.5088.581-.292,1.124A1.23,1.23,0,0,0,205.9859,262.7666Z"/>
        <path class="sphere-2" d="M206.7056,267.4053a1.4473,1.4473,0,0,1-.6182-.752,1.21,1.21,0,0,1,.7363-1.74l2.1622-.8613-.2666-.669.5869-.2334.2666.668.8623-.3428.2842.7129-.8623.3437.45,1.13-.5869.2334-.45-1.13-2.1328.85a.6245.6245,0,0,0-.415.8808.9651.9651,0,0,0,.4072.4834Z"/>
        <path class="sphere-2" d="M210.7583,266.793l.2842.7129-3.9385,1.5693-.2842-.7139Zm1.168-.6123a.5068.5068,0,0,1,.6611.2968.4983.4983,0,0,1-.2617.6641.5206.5206,0,0,1-.3994-.9609Z"/>
        <path class="sphere-2" d="M209.4741,269.2949a2.2041,2.2041,0,1,1-1.1972,2.8535A2.1095,2.1095,0,0,1,209.4741,269.2949Zm1.3438,3.374a1.43,1.43,0,1,0-1.917-.7695A1.391,1.391,0,0,0,210.8179,272.6689Z"/>
        <path class="sphere-2" d="M213.2847,277.9932l-2.2656.9033-.2842-.7139,2.1846-.87a1.0676,1.0676,0,0,0,.7285-1.5215,1.26,1.26,0,0,0-1.8057-.7275l-2.0283.8086-.2842-.7139,3.9385-1.5684.2724.6836-.5947.2364a1.8212,1.8212,0,0,1,1.1973,1.1679A1.6423,1.6423,0,0,1,213.2847,277.9932Z"/>
      </g>
    </g>
    <g id="church-ministry" class="sphere-without-opportunities">
      <path class="sphere-5" d="M169.92,211.7981c-.0435,0-.0867.0019-.13.0035s-.0865.0031-.13.0031a41.7914,41.7914,0,0,1-29.4926-12.1321l-30.9537,30.9537L78.26,261.58a129.2422,129.2422,0,0,0,91.66,37.96V211.7981Z"/>
      <g>
        <path class="sphere-6" d="M126.6265,276.7676a2.83,2.83,0,0,1-1.5674-3.8106,2.767,2.767,0,0,1,1.5938-1.6562l.2763.6689a2.0748,2.0748,0,0,0-1.1972,1.22,2.1507,2.1507,0,1,0,3.998,1.5839,2.08,2.08,0,0,0-.0439-1.7109l.66-.2979a2.7778,2.7778,0,0,1,.03,2.3077A2.8269,2.8269,0,0,1,126.6265,276.7676Z"/>
        <path class="sphere-6" d="M130.6987,267.4668l2.2667.8984-.2823.7139-2.1845-.8662a1.0666,1.0666,0,0,0-1.5733.6064,1.2576,1.2576,0,0,0,.8135,1.7666l2.0283.8037-.2832.7139L125.97,269.918l.2832-.7139,2.1328.8457a1.8357,1.8357,0,0,1-.0439-1.625A1.6408,1.6408,0,0,1,130.6987,267.4668Z"/>
        <path class="sphere-6" d="M131.0064,261.8105l3.9384,1.5616-.2675.6758-.5948-.2354a1.7235,1.7235,0,0,1,.1094,1.5908,1.6655,1.6655,0,0,1-2.3887,1.0137l-2.2666-.8984.2832-.7129,2.1846.8652a1.0726,1.0726,0,0,0,1.58-.6025,1.2466,1.2466,0,0,0-.8242-1.7373l-2.0362-.8067Z"/>
        <path class="sphere-6" d="M132.35,258.3105l.6914.2735a1.328,1.328,0,0,0-.0722.16,1.2638,1.2638,0,0,0,.8378,1.7686l1.962.7773-.2832.7139-3.9385-1.5615.2715-.6836.6611.2627A1.6166,1.6166,0,0,1,132.35,258.3105Z"/>
        <path class="sphere-6" d="M134.5464,258.626a2.1163,2.1163,0,0,1-1.1816-2.876,1.8892,1.8892,0,0,1,1.4756-1.2715l.1347.6807a1.3218,1.3218,0,0,0-.9892.8457,1.491,1.491,0,0,0,2.7714,1.0986,1.3186,1.3186,0,0,0-.1406-1.2939l.5576-.4073a1.8986,1.8986,0,0,1,.211,1.9415A2.1234,2.1234,0,0,1,134.5464,258.626Z"/>
        <path class="sphere-6" d="M137.5445,250.1914l2.2666.8984-.2823.7139-2.1845-.8662a1.0666,1.0666,0,0,0-1.5733.6064,1.2576,1.2576,0,0,0,.8135,1.7666l2.0283.8038-.2832.7138-5.5137-2.1855.2832-.7139,2.1329.8457a1.8353,1.8353,0,0,1-.044-1.625A1.6409,1.6409,0,0,1,137.5445,250.1914Z"/>
        <path class="sphere-6" d="M143.0786,242.8486l-3.7929-1.4951,2.413,3.1319-.1357.3417-3.8809.6377,3.7676,1.4932-.2822.7129-5.2021-2.0615.2412-.6094,4.5166-.7207-2.8086-3.5889.2422-.6093,5.2041,2.0537Z"/>
        <path class="sphere-6" d="M138.7388,238.7373a.505.505,0,0,1-.2764-.6689.5.5,0,1,1,.2764.6689Zm1.2685.3565.2832-.7129,3.9385,1.56-.2832.7139Z"/>
        <path class="sphere-6" d="M143.9771,233.957l2.2666.8985-.2823.7138-2.1845-.8662a1.0666,1.0666,0,0,0-1.5733.6065,1.2577,1.2577,0,0,0,.8135,1.7666l2.0283.8037-.2832.7139-3.9385-1.5616.2715-.6836.5948.2354a1.8136,1.8136,0,0,1-.0694-1.669A1.6409,1.6409,0,0,1,143.9771,233.957Z"/>
        <path class="sphere-6" d="M141.5708,231.5908a.505.505,0,0,1-.2763-.6689.5.5,0,1,1,.2763.6689Zm1.2686.3565.2832-.7129,3.9385,1.5605-.2832.7139Z"/>
        <path class="sphere-6" d="M146.9859,231.77l-.4463-.5215a2.7189,2.7189,0,0,0,.956-1.2207c.2617-.6611.17-1.0156-.164-1.1474-.8838-.3506-1.1055,2.4414-2.6729,1.82-.706-.2793-.9316-1.1-.5312-2.11a3.0845,3.0845,0,0,1,.9248-1.2929l.4443.5283a2.2112,2.2112,0,0,0-.7627,1.0137c-.2471.624-.1377,1.02.1748,1.1435.9287.3682,1.16-2.4287,2.69-1.8222.7139.2832.9082,1.1162.4922,2.164A3.0588,3.0588,0,0,1,146.9859,231.77Z"/>
        <path class="sphere-6" d="M149.7261,225.3975a1.4458,1.4458,0,0,1-.0664.9716,1.21,1.21,0,0,1-1.7285.76l-2.1621-.8574-.2657.6689-.5869-.2324.2656-.6689-.8623-.3418.2823-.7139.8623.3418.4482-1.1289.5869.2324-.4482,1.1289,2.1328.8457a.6248.6248,0,0,0,.9063-.3545.9716.9716,0,0,0,.0351-.6308Z"/>
        <path class="sphere-6" d="M147.16,220.9385l.6914.2734a1.3149,1.3149,0,0,0-.0723.16,1.2638,1.2638,0,0,0,.8379,1.7685l1.9619.7774-.2832.7138L146.357,223.07l.2714-.6836.6612.2627A1.6164,1.6164,0,0,1,147.16,220.9385Z"/>
        <path class="sphere-6" d="M148.9937,216.417l3.5752,3.6269a1.5432,1.5432,0,0,1,.5361,1.8379,1.5928,1.5928,0,0,1-.7646.8662l-.4151-.5166a1.088,1.088,0,0,0,.57-.5918c.1348-.3417.0645-.6191-.3125-.9912l-.2246-.2353-4.62.1807.2949-.7432,3.6953-.126-2.6123-2.6084Z"/>
      </g>
    </g>
    <g id="sports-music-art" class="sphere-without-opportunities">
      <path class="sphere-7" d="M127.7315,169.92H40.3a129.2418,129.2418,0,0,0,37.96,91.66l30.9537-30.9536,30.9537-30.9537A41.7954,41.7954,0,0,1,127.7315,169.92Z"/>
      <g>
        <path class="sphere-2" d="M56.563,218.5352l.0449-.69a2.88,2.88,0,0,0,1.9561-.082c.8994-.3575,1.1465-.8614.9658-1.3145-.5059-1.27-3.3369.7871-4.1074-1.1445-.3194-.8027.0322-1.7354,1.4-2.28a3.302,3.302,0,0,1,1.8554-.2051l-.0087.6924a2.8922,2.8922,0,0,0-1.5958.1445c-.8837.3526-1.1152.875-.9345,1.3282.5058,1.27,3.34-.7793,4.1006,1.13.3173.7959-.05,1.7334-1.4239,2.2812A3.3222,3.3222,0,0,1,56.563,218.5352Z"/>
        <path class="sphere-2" d="M65.0816,213.5488a2.06,2.06,0,0,1-1.1895,2.8067,1.8113,1.8113,0,0,1-1.63-.0918l.8115,2.0361-.7128.2842-2.1436-5.38.6836-.2725.249.625a1.8043,1.8043,0,0,1,1.1406-1.2216A2.0589,2.0589,0,0,1,65.0816,213.5488Zm-.7207.2871a1.43,1.43,0,1,0-.7774,1.919A1.4015,1.4015,0,0,0,64.3609,213.8359Z"/>
        <path class="sphere-2" d="M65.73,213.29a2.204,2.204,0,1,1,2.8535,1.1973A2.1094,2.1094,0,0,1,65.73,213.29Zm3.374-1.3437a1.43,1.43,0,1,0-.7695,1.917A1.3909,1.3909,0,0,0,69.104,211.9463Z"/>
        <path class="sphere-2" d="M72.1284,208.417l.2754.6914a1.43,1.43,0,0,0-.166.0576,1.2643,1.2643,0,0,0-.7109,1.8242l.7812,1.9619-.7138.2842-1.5684-3.9384.6836-.2725.2637.6621A1.6193,1.6193,0,0,1,72.1284,208.417Z"/>
        <path class="sphere-2" d="M76.8794,210.8643a1.4473,1.4473,0,0,1-.7519.6181,1.21,1.21,0,0,1-1.74-.7363l-.8613-2.1621-.6689.2666-.2334-.5869.6679-.2666-.3428-.8623.7129-.2842.3438.8623,1.13-.45.2334.5869-1.13.45.85,2.1328a.6246.6246,0,0,0,.8809.4151.9657.9657,0,0,0,.4834-.4073Z"/>
        <path class="sphere-2" d="M77.1675,210.5352l.0723-.6827a2.7269,2.7269,0,0,0,1.5449-.1425c.6611-.2637.8564-.5733.7226-.9082-.3515-.8838-2.5361.873-3.1611-.6944-.2812-.706.1611-1.4336,1.1719-1.8359a3.0849,3.0849,0,0,1,1.5762-.2149l-.08.6866a2.2044,2.2044,0,0,0-1.2608.1406c-.624.248-.8369.6006-.7129.9121.37.9287,2.5645-.8232,3.1749.707.2841.7139-.19,1.4278-1.2374,1.8448A3.0565,3.0565,0,0,1,77.1675,210.5352Z"/>
        <path class="sphere-2" d="M82.0259,208.54a1.6451,1.6451,0,0,1,.0869.585l.0615,1.1729-.4677.1865-.1661-1.2168a.51.51,0,0,1-.496-.3369.5232.5232,0,0,1,.2968-.7032A.5148.5148,0,0,1,82.0259,208.54Z"/>
        <path class="sphere-2" d="M90.1773,205.834l-1.5166-3.7861-.6221,3.9072-.3418.1357-3.1289-2.3867,1.5,3.7676-.7129.2842-2.0723-5.2022.6094-.2422,3.626,2.791.6846-4.5087.6084-.2422,2.08,5.1982Z"/>
        <path class="sphere-2" d="M94.4536,199.5684l1.5684,3.9384-.6758.27-.2363-.5948a1.7289,1.7289,0,0,1-1.083,1.1719,1.6669,1.6669,0,0,1-2.3789-1.042l-.9024-2.2666.7129-.2842.8711,2.1846a1.0733,1.0733,0,0,0,1.5244.7363,1.2473,1.2473,0,0,0,.6973-1.7929l-.8115-2.0362Z"/>
        <path class="sphere-2" d="M96.7183,202.748l.0722-.6826a2.7271,2.7271,0,0,0,1.545-.1425c.6611-.2637.8564-.5733.7226-.9083-.3515-.8837-2.5361.8731-3.1611-.6943-.2813-.706.1611-1.4336,1.1719-1.8359a3.0847,3.0847,0,0,1,1.5761-.2149l-.08.6866a2.2043,2.2043,0,0,0-1.2608.1406c-.624.248-.8369.6006-.7129.9121.37.9287,2.5645-.8233,3.1748.707.2842.7139-.1894,1.4278-1.2373,1.8447A3.055,3.055,0,0,1,96.7183,202.748Z"/>
        <path class="sphere-2" d="M98.9146,196.38a.5068.5068,0,0,1,.2968-.6611.4982.4982,0,0,1,.6641.2617.5206.5206,0,0,1-.9609.3994Zm.6123,1.168.7129-.2842,1.5693,3.9384-.7139.2842Z"/>
        <path class="sphere-2" d="M102.0454,198.8262a2.1178,2.1178,0,0,1,1.2823-2.835,1.89,1.89,0,0,1,1.9394.2l-.4033.5654a1.32,1.32,0,0,0-1.2949-.1386,1.4919,1.4919,0,0,0,1.1035,2.7714,1.3214,1.3214,0,0,0,.8457-.99l.6777.125a1.8961,1.8961,0,0,1-1.2676,1.4873A2.125,2.125,0,0,1,102.0454,198.8262Z"/>
        <path class="sphere-2" d="M113.3745,196.69l-.9658-.4151a2.6168,2.6168,0,0,1-1.4726,1.3613c-1.0557.42-2.043.168-2.3594-.6269-.2549-.64-.0684-1.2305.6269-2.1016a1.7475,1.7475,0,0,1-1.0976-.94,1.3165,1.3165,0,0,1,.9394-1.7256,1.2011,1.2011,0,0,1,1.7256.5693c.21.5284.0488,1.0313-.5664,1.8008l1.7949.7666a3.48,3.48,0,0,0-.0566-1.0713l.6465-.042a3.6685,3.6685,0,0,1,.02,1.3692l.9765.4209Zm-4.6133-3.001c.1065.2676.2872.42.8829.6816.5293-.6582.6582-.9853.5273-1.3125-.1357-.3418-.4727-.4736-.9189-.2969A.6975.6975,0,0,0,108.7612,193.6885Zm3.0577,2.3379-2.0645-.8819c-.5654.6983-.6748,1.0948-.5088,1.5117.1983.4971.8.6456,1.4981.3672A1.8991,1.8991,0,0,0,111.8189,196.0264Z"/>
        <path class="sphere-2" d="M119.438,192.6719l-2.7637,1.1015-.0547,1.5284-.7656.3046.2842-6.14.7354-.2939,4.4355,4.2607-.78.31Zm-.4971-.4912-2.1367-2.1016-.1074,2.9961Z"/>
        <path class="sphere-2" d="M122.51,188.35l.2754.6914a1.4321,1.4321,0,0,0-.1661.0576,1.2645,1.2645,0,0,0-.7109,1.8243l.7813,1.9619-.7139.2841-1.5684-3.9384.6836-.2725.2637.6621A1.6193,1.6193,0,0,1,122.51,188.35Z"/>
        <path class="sphere-2" d="M127.2554,190.7988a1.4473,1.4473,0,0,1-.752.6182,1.21,1.21,0,0,1-1.74-.7363l-.8613-2.1621-.669.2666-.2334-.587.668-.2666-.3428-.8623.7129-.2841.3438.8623,1.13-.45.2334.5869-1.13.45.85,2.1328a.6244.6244,0,0,0,.8808.415.9651.9651,0,0,0,.4834-.4072Z"/>
      </g>
    </g>
    <g id="gem-uk-team" class="sphere-without-opportunities">
      <path class="sphere-8" d="M127.73,169.875a41.797,41.797,0,0,1,12.391-29.7537l-30.9306-30.9306L78.26,78.26A129.2418,129.2418,0,0,0,40.3,169.92h87.4315l-.0006-.0225Z"/>
      <g>
        <path class="sphere-6" d="M68.5786,128.8052l.7129.2842-.8076,2.0288a3.31,3.31,0,0,1-2.2334-.1231,2.8663,2.8663,0,1,1,2.1348-5.3144,2.8,2.8,0,0,1,1.6787,1.5986l-.6436.2773a2.2216,2.2216,0,0,0-1.2685-1.2031,2.1532,2.1532,0,1,0-1.6006,3.9951,2.3668,2.3668,0,0,0,1.3516.1509Z"/>
        <path class="sphere-6" d="M73.6939,133.14l-.2569.6465-3.7754-1.5034,2.0723-5.2021,3.6709,1.4624-.2578.6464-2.9277-1.166-.6368,1.5977,2.6084,1.039-.2509.6314-2.6084-1.0391-.669,1.68Z"/>
        <path class="sphere-6" d="M79.4712,136.1885l1.5029-3.793-3.1386,2.41-.3418-.1363-.6309-3.8847-1.501,3.7676-.7129-.2842,2.0723-5.2022.6094.2432.7129,4.52,3.5967-2.8032.6093.2427-2.0644,5.2046Z"/>
        <path class="sphere-6" d="M84.6148,135.6333l1.1777-2.9575.7432.2959L85.37,135.8994c-.4589,1.1519-.1386,1.8823.7979,2.2554s1.6787.0659,2.1377-1.086l1.166-2.9277.7207.2871-1.1777,2.9575a2.37,2.37,0,1,1-4.3994-1.7524Z"/>
        <path class="sphere-6" d="M92.2378,138.59l-1.3359.5869-.5362,1.3453-.7431-.2959,2.0722-5.2022.7432.2964-1.1572,2.9053,3.98-1.7808.8477.3379-3.1543,1.4556,1.2236,3.8022-.87-.3462Z"/>
        <path class="sphere-6" d="M99.8286,139.01l-1.7832-.71.2569-.6465,4.3027,1.7139-.2578.6465-1.7832-.71L98.75,143.8584l-.7353-.293Z"/>
        <path class="sphere-6" d="M105.07,144.3691l-3.1953-1.2729a1.4371,1.4371,0,0,0,.9688,1.72,1.5841,1.5841,0,0,0,1.3262-.0229l.21.6176a2.31,2.31,0,0,1-3.123-2.8369,2.0758,2.0758,0,0,1,2.7754-1.2192,2.0441,2.0441,0,0,1,1.14,2.8042C105.147,144.2188,105.104,144.3052,105.07,144.3691Zm-2.99-1.7856,2.5264,1.0063a1.3682,1.3682,0,0,0-2.5264-1.0063Z"/>
        <path class="sphere-6" d="M109.3443,145.32l-.9473,2.3779-.6758-.27.207-.52a1.5738,1.5738,0,0,1-1.5175.05c-.8916-.3555-1.2676-1.0562-.9952-1.74.252-.6314.8682-.9888,2.042-.521l1.1289.45.0567-.1412a.9708.9708,0,0,0-.6768-1.3715,2.1435,2.1435,0,0,0-1.417-.0738l-.0839-.6533a2.8231,2.8231,0,0,1,1.8291.1431A1.5784,1.5784,0,0,1,109.3443,145.32Zm-1.1807.89.2187-.55-1.1-.438c-.706-.2813-1.0156-.086-1.1494.248-.1562.3941.0723.7695.6153.9859A1.23,1.23,0,0,0,108.1636,146.21Z"/>
        <path class="sphere-6" d="M117.1509,148.5571l-.9023,2.2666-.7139-.2841.87-2.1851c.3086-.7725.0879-1.3-.5586-1.5571a1.2313,1.2313,0,0,0-1.7031.8369l-.8076,2.0288-.7139-.2842.8711-2.1846c.3076-.7729.0869-1.3-.56-1.5576a1.2316,1.2316,0,0,0-1.7031.8374l-.8076,2.0288-.7139-.2841,1.5694-3.9385.6835.2724-.2334.5869a1.7172,1.7172,0,0,1,1.6084-.0825,1.569,1.569,0,0,1,1.0772,1.273,1.9085,1.9085,0,0,1,1.8057-.1245A1.6252,1.6252,0,0,1,117.1509,148.5571Z"/>
      </g>
    </g>
    <g id="educators" class="sphere-without-opportunities">
      <path class="sphere-9" d="M169.66,127.9453c.0436,0,.0868.0015.13.0031s.0864.0032.13.0035V40.3A129.2411,129.2411,0,0,0,78.26,78.26l30.9307,30.9306,30.9306,30.9307a41.7929,41.7929,0,0,1,29.5387-12.176Z"/>
      <g>
        <path class="sphere-6" d="M127.7144,72.6191l-.6465.2564-1.4961-3.7749,5.2012-2.0615,1.455,3.6709-.6464.2563-1.16-2.9277-1.5977.6328L129.857,71.28l-.6319.2505-1.0332-2.6084-1.68.6655Z"/>
        <path class="sphere-6" d="M134.4732,75.4644l-5.5137,2.185-.27-.6836.624-.247a1.7912,1.7912,0,0,1-1.2256-1.14,2.1624,2.1624,0,0,1,4.02-1.5933,1.803,1.803,0,0,1-.0869,1.625l2.17-.86Zm-3.8243.6987a1.4282,1.4282,0,1,0-1.913-.772A1.3946,1.3946,0,0,0,130.6489,76.1631Z"/>
        <path class="sphere-6" d="M134.8862,81.1055l-3.9384,1.561L130.68,81.99l.5937-.2353A1.7242,1.7242,0,0,1,130.105,80.67a1.6647,1.6647,0,0,1,1.0449-2.3745l2.2666-.8984.2832.7133-2.1845.8658a1.0728,1.0728,0,0,0-.7383,1.5224,1.2465,1.2465,0,0,0,1.791.7l2.0361-.8071Z"/>
        <path class="sphere-6" d="M133.315,82.8921a2.1168,2.1168,0,0,1,2.831,1.2856,1.8883,1.8883,0,0,1-.2031,1.9375l-.5645-.4038a1.3206,1.3206,0,0,0,.1407-1.2939,1.4911,1.4911,0,0,0-2.7715,1.0986,1.3193,1.3193,0,0,0,.9883.8462l-.127.6777a1.8962,1.8962,0,0,1-1.4834-1.269A2.1237,2.1237,0,0,1,133.315,82.8921Z"/>
        <path class="sphere-6" d="M136.7945,90.478l-2.378.9424-.2676-.6763.52-.206a1.5728,1.5728,0,0,1-1.0772-1.0693c-.3535-.8917-.1015-1.6451.5821-1.9161.6318-.25,1.3144-.0478,1.7793,1.1265l.4472,1.1294.1416-.0557a.9708.9708,0,0,0,.5332-1.4321,2.1412,2.1412,0,0,0-.9189-1.0806l.4179-.5092a2.8206,2.8206,0,0,1,1.1495,1.4267A1.5777,1.5777,0,0,1,136.7945,90.478Zm-1.4571-.248.55-.2183-.4355-1.1c-.28-.706-.6338-.7978-.9688-.665-.3935.1562-.51.58-.2939,1.1225A1.2286,1.2286,0,0,0,135.3374,90.23Z"/>
        <path class="sphere-6" d="M136.0464,94.8623a1.442,1.442,0,0,1-.6162-.7529,1.2087,1.2087,0,0,1,.7383-1.7373l2.1621-.857-.2647-.6689.587-.2324.2656.6684.8613-.3413.2832.7134-.8623.3413.4473,1.13-.5869.2324-.4473-1.1294-2.1328.8452a.624.624,0,0,0-.417.8789.9631.9631,0,0,0,.4072.4834Z"/>
        <path class="sphere-6" d="M137.9321,94.5435a2.2024,2.2024,0,1,1-1.2011,2.8491A2.1084,2.1084,0,0,1,137.9321,94.5435Zm1.337,3.3735a1.4282,1.4282,0,1,0-1.9141-.772A1.39,1.39,0,0,0,139.2691,97.917Z"/>
        <path class="sphere-6" d="M142.7993,100.9668l-.6914.2734a1.1545,1.1545,0,0,0-.0576-.166,1.2632,1.2632,0,0,0-1.8213-.7138l-1.9619.7773-.2832-.7134,3.9385-1.561.2715.6836-.6612.2622A1.6181,1.6181,0,0,1,142.7993,100.9668Z"/>
        <path class="sphere-6" d="M139.4019,102.7871l.6826.0737a2.73,2.73,0,0,0,.14,1.544c.2618.6616.5713.8569.9063.7246.8838-.3506-.8682-2.5366.7-3.1582.706-.28,1.4316.1636,1.832,1.1743a3.0887,3.0887,0,0,1,.2119,1.5752l-.6855-.0806a2.2117,2.2117,0,0,0-.1387-1.2607c-.2471-.624-.5986-.8374-.91-.7139-.9288.3682.8183,2.5645-.7129,3.1714-.7129.2827-1.4258-.1919-1.8409-1.24A3.0667,3.0667,0,0,1,139.4019,102.7871Z"/>
      </g>
    </g>
    <g id="business-as-mission" class="sphere-without-opportunities">
      <path class="sphere-6" d="M199.4577,140.3824l15.5306-15.5306,15.5306-15.5306L246.05,93.7906,261.58,78.26a130.2754,130.2754,0,0,0-20.3392-16.6089A128.9289,128.9289,0,0,0,194.6749,42.672,130.284,130.284,0,0,0,169.92,40.3v87.6519a42.0985,42.0985,0,0,1,8.4282.9,41.6952,41.6952,0,0,1,14.9367,6.383A42.1269,42.1269,0,0,1,199.4577,140.3824Z"/>
      <g>
        <path class="sphere-2" d="M192.1969,119.9858c.8008.3188,1.0192,1.1094.5491,2.2908l-.8885,2.2291-4.6712-1.8611.8349-2.0953c.428-1.0749,1.1209-1.4945,1.8752-1.1941a1.1928,1.1928,0,0,1,.7911,1.0419A1.2146,1.2146,0,0,1,192.1969,119.9858Zm-4.2046,2.2067,1.4954.5955.5446-1.3678c.2711-.681.1719-1.1691-.3218-1.3656s-.9017.089-1.1727.77Zm3.8828-1.5542c-.54-.2153-.94.09-1.2358.83l-.6113,1.5353,1.555.6192.6113-1.5348C192.49,121.347,192.4153,120.8536,191.8751,120.6383Z"/>
        <path class="sphere-2" d="M191.6084,114.8422l3.5372,1.409-.242.6074-.5333-.2127a1.5485,1.5485,0,0,1,.0947,1.43,1.4953,1.4953,0,0,1-2.147.9073l-2.0357-.8109.2552-.6407,1.962.7815a.9637.9637,0,0,0,1.4209-.5394,1.12,1.12,0,0,0-.7385-1.5625l-1.8287-.7284Z"/>
        <path class="sphere-2" d="M195.0825,115.3264l-.4008-.4688a2.45,2.45,0,0,0,.8612-1.0955c.2368-.5937.1544-.9126-.1456-1.0323-.7946-.3162-.9972,2.1936-2.4057,1.6327-.6342-.2526-.835-.99-.4737-1.898a2.7736,2.7736,0,0,1,.8332-1.16l.3982.4758a1.99,1.99,0,0,0-.6867.9095c-.2237.56-.1254.9165.1552,1.0279.8341.3324,1.0464-2.1813,2.4216-1.6335.64.2552.8139,1.0046.4385,1.9457A2.752,2.752,0,0,1,195.0825,115.3264Z"/>
        <path class="sphere-2" d="M192.2873,109.9583a.4542.4542,0,0,1-.2474-.6012.4493.4493,0,1,1,.2474.6012Zm1.14.3228.2552-.6407,3.5372,1.409-.2553.6407Z"/>
        <path class="sphere-2" d="M197.0129,105.651l2.0357.8109-.2553.6407-1.9628-.7815a.9588.9588,0,0,0-1.4147.542,1.131,1.131,0,0,0,.7279,1.5893l1.8226.7258-.2553.6406-3.5372-1.409.2447-.6139.5342.2127a1.63,1.63,0,0,1-.06-1.5007A1.4751,1.4751,0,0,1,197.0129,105.651Z"/>
        <path class="sphere-2" d="M199.2389,101.4591l-1.1437,2.87a1.29,1.29,0,0,0,1.5454-.8692,1.4219,1.4219,0,0,0-.02-1.1915l.5543-.1886a2.0751,2.0751,0,0,1-2.5479,2.8049,1.8641,1.8641,0,0,1-1.0945-2.4931,1.8353,1.8353,0,0,1,2.518-1.0226C199.1038,101.39,199.181,101.4284,199.2389,101.4591Zm-1.6042,2.6865.9043-2.269a1.2289,1.2289,0,0,0-.9043,2.269Z"/>
        <path class="sphere-2" d="M200.6053,101.4714l-.4008-.4688a2.45,2.45,0,0,0,.8613-1.0954c.2368-.5938.1544-.9126-.1456-1.0323-.7946-.3162-.9972,2.1935-2.4058,1.6326-.6341-.2526-.8349-.99-.4736-1.898a2.7734,2.7734,0,0,1,.8332-1.16l.3982.4758a1.989,1.989,0,0,0-.6867.91c-.2237.56-.1255.9165.1552,1.0279.8341.3324,1.0463-2.1812,2.4216-1.6335.64.2552.8139,1.0047.4385,1.9458A2.7462,2.7462,0,0,1,200.6053,101.4714Z"/>
        <path class="sphere-2" d="M201.9411,98.1193l-.4008-.4688a2.45,2.45,0,0,0,.8613-1.0955c.2368-.5937.1543-.9126-.1456-1.0323-.7946-.3162-.9973,2.1936-2.4058,1.6327-.6341-.2526-.835-.99-.4736-1.898a2.7734,2.7734,0,0,1,.8332-1.16l.3982.4758a1.9894,1.9894,0,0,0-.6868.9095c-.2236.56-.1254.9165.1553,1.0279.8341.3324,1.0463-2.1813,2.4215-1.6335.64.2552.814,1.0046.4386,1.9457A2.7521,2.7521,0,0,1,201.9411,98.1193Z"/>
        <path class="sphere-2" d="M204.5969,89.1452l-.9894,2.4825.963.9792-.2736.6872-3.8293-3.9766.2632-.6609,5.5176-.2609-.2789.7008Zm-.6271.0206-2.6909.096,1.8875,1.9195Z"/>
        <path class="sphere-2" d="M205.9274,88.1164l-.4009-.4688a2.45,2.45,0,0,0,.8613-1.0955c.2368-.5938.1544-.9126-.1456-1.0323-.7946-.3162-.9972,2.1936-2.4058,1.6327-.6341-.2526-.8349-.99-.4736-1.898a2.7736,2.7736,0,0,1,.8332-1.16l.3982.4758a1.99,1.99,0,0,0-.6867.91c-.2237.56-.1254.9165.1552,1.0279.8341.3324,1.0464-2.1813,2.4216-1.6335.64.2552.8139,1.0046.4385,1.9457A2.747,2.747,0,0,1,205.9274,88.1164Z"/>
        <path class="sphere-2" d="M210.289,78.2586l-3.4065-1.3493,2.1637,2.8184-.1228.307-3.489.5665,3.3838,1.3481-.2553.6407-4.6712-1.8611.2175-.5473,4.06-.6407-2.518-3.23.2184-.5469,4.6747,1.8541Z"/>
        <path class="sphere-2" d="M206.3869,74.58a.4543.4543,0,0,1-.2473-.6013.4493.4493,0,1,1,.2473.6013Zm1.14.3227.2552-.6407,3.5372,1.409-.2552.6407Z"/>
        <path class="sphere-2" d="M211.2652,74.7258l-.4009-.4688a2.4506,2.4506,0,0,0,.8613-1.095c.2368-.5942.1544-.913-.1456-1.0327-.7946-.3162-.9972,2.1935-2.4058,1.6326-.6341-.2526-.8349-.99-.4736-1.898a2.7749,2.7749,0,0,1,.8332-1.16l.3982.4758a1.99,1.99,0,0,0-.6867.9095c-.2237.5605-.1254.9165.1552,1.0284.8341.3319,1.0464-2.1817,2.4216-1.634.64.2552.8139,1.0047.4385,1.9458A2.7467,2.7467,0,0,1,211.2652,74.7258Z"/>
        <path class="sphere-2" d="M212.5974,71.3811l-.4008-.4688a2.45,2.45,0,0,0,.8613-1.0954c.2368-.5938.1543-.9126-.1456-1.0323-.7946-.3162-.9972,2.1935-2.4058,1.6326-.6341-.2526-.835-.99-.4736-1.8979a2.7737,2.7737,0,0,1,.8332-1.16l.3982.4758a1.99,1.99,0,0,0-.6868.91c-.2236.56-.1254.9166.1553,1.028.8341.3324,1.0463-2.1813,2.4216-1.6336.64.2552.8139,1.0047.4385,1.9458A2.7517,2.7517,0,0,1,212.5974,71.3811Z"/>
        <path class="sphere-2" d="M209.8022,66.0126a.4541.4541,0,0,1-.2473-.6012.4469.4469,0,0,1,.58-.2715.4672.4672,0,0,1-.3324.8727Zm1.14.3228.2552-.6407,3.5372,1.409-.2552.6407Z"/>
        <path class="sphere-2" d="M213.3263,65.4973a1.9793,1.9793,0,1,1,2.5426-1.1213A1.8946,1.8946,0,0,1,213.3263,65.4973Zm1.2068-3.03a1.2837,1.2837,0,1,0,.7744,1.6853A1.2493,1.2493,0,0,0,214.5331,62.4675Z"/>
        <path class="sphere-2" d="M216.2127,57.4792l2.0356.8109-.2552.6407-1.9629-.7815a.9589.9589,0,0,0-1.4147.542,1.1311,1.1311,0,0,0,.728,1.5893l1.8225.7257-.2552.6407-3.5372-1.409.2447-.6139.5333.2127a1.6332,1.6332,0,0,1-.0588-1.5007A1.4751,1.4751,0,0,1,216.2127,57.4792Z"/>
      </g>
    </g>
  </g>
</svg>
